<svg width="109" height="20" viewBox="0 0 109 20" fill="none" xmlns="http://www.w3.org/2000/svg">
<path d="M1.0014 17.5011V4.20108C1.0014 3.08098 1.0014 2.52051 1.21938 2.09268C1.41113 1.71636 1.71687 1.41062 2.09319 1.21887C2.52102 1.00089 3.08149 1.00089 4.20159 1.00089H13.4016C13.9616 1.00089 14.2421 1.00089 14.456 1.10988C14.6441 1.20575 14.7961 1.35862 14.892 1.54678C15.001 1.7607 15.0014 2.04093 15.0014 2.60098V14.401C15.0014 14.961 15.001 15.2407 14.892 15.4546C14.7961 15.6427 14.6443 15.7961 14.4562 15.892C14.2425 16.0009 13.9624 16.0009 13.4034 16.0009H3.2514C2.00876 16.0009 1.0014 17.0082 1.0014 18.2509C1.0014 18.6651 1.33718 19.0009 1.7514 19.0009H12.4034C12.9624 19.0009 13.2425 19.0009 13.4562 18.892C13.6443 18.7961 13.7961 18.6428 13.892 18.4547C14.001 18.2408 14.0014 17.9609 14.0014 17.4009V16.0009" stroke="#2B7FFF" stroke-width="2" stroke-linecap="round" stroke-linejoin="round"/>
<path d="M25.234 15.0045L23.138 15.0045C22.914 15.0045 22.7806 14.8925 22.738 14.6685L20.258 5.0845C20.1833 4.83917 20.29 4.7165 20.578 4.7165L22.082 4.7165C22.2953 4.7165 22.4233 4.8285 22.466 5.0525L24.146 12.9245L24.21 12.9245L25.89 5.0525C25.9326 4.8285 26.0606 4.7165 26.274 4.7165L27.778 4.7165C28.0446 4.7165 28.1513 4.83916 28.098 5.0845L25.618 14.6685C25.5646 14.8925 25.4366 15.0045 25.234 15.0045ZM32.1857 13.2445L33.3217 13.2445C33.663 13.2445 33.903 13.1752 34.0417 13.0365C34.191 12.8872 34.2657 12.6418 34.2657 12.3005L34.2657 7.42049C34.2657 7.07916 34.1911 6.83916 34.0417 6.70049C33.9031 6.55116 33.6631 6.47649 33.3217 6.47649L32.1857 6.47649C31.8444 6.47649 31.6044 6.55116 31.4657 6.70049C31.3271 6.83916 31.2577 7.07916 31.2577 7.42049L31.2577 12.3005C31.2577 12.6418 31.327 12.8872 31.4657 13.0365C31.6044 13.1752 31.8444 13.2445 32.1857 13.2445ZM33.6577 15.0045L31.8657 15.0045C31.023 15.0045 30.3724 14.7805 29.9137 14.3325C29.455 13.8845 29.2257 13.2392 29.2257 12.3965L29.2257 7.3245C29.2257 6.48183 29.4551 5.8365 29.9137 5.38849C30.3724 4.94049 31.0231 4.71649 31.8657 4.71649L33.6577 4.71649C34.5004 4.71649 35.1511 4.94049 35.6097 5.38849C36.0684 5.83649 36.2977 6.48182 36.2977 7.32449L36.2977 12.3965C36.2977 13.2392 36.0684 13.8845 35.6097 14.3325C35.151 14.7805 34.5004 15.0045 33.6577 15.0045ZM42.4378 15.0045L40.6938 15.0045C39.8512 15.0045 39.2005 14.7805 38.7418 14.3325C38.2832 13.8845 38.0538 13.2392 38.0538 12.3965L38.0538 7.32449C38.0538 6.48182 38.2832 5.83649 38.7418 5.38849C39.2005 4.94049 39.8512 4.71649 40.6938 4.71649L42.4378 4.71649C43.2698 4.71649 43.9152 4.94582 44.3738 5.40449C44.8432 5.85249 45.0778 6.49249 45.0778 7.32449L45.0778 8.07649C45.0778 8.31115 44.9605 8.42849 44.7258 8.42849L43.3818 8.42849C43.1578 8.42849 43.0458 8.31115 43.0458 8.07649L43.0458 7.42049C43.0458 7.07915 42.9712 6.83915 42.8218 6.70049C42.6832 6.55115 42.4432 6.47649 42.1018 6.47649L41.0138 6.47649C40.6832 6.47649 40.4432 6.55115 40.2938 6.70049C40.1552 6.83915 40.0858 7.07915 40.0858 7.42049L40.0858 12.3005C40.0858 12.6418 40.1552 12.8872 40.2938 13.0365C40.4432 13.1752 40.6832 13.2445 41.0138 13.2445L42.1018 13.2445C42.4432 13.2445 42.6832 13.1752 42.8218 13.0365C42.9712 12.8872 43.0458 12.6418 43.0458 12.3005L43.0458 11.6445C43.0458 11.4098 43.1578 11.2925 43.3818 11.2925L44.7258 11.2925C44.9605 11.2925 45.0778 11.4098 45.0778 11.6445L45.0778 12.3965C45.0778 13.2285 44.8432 13.8738 44.3738 14.3325C43.9152 14.7805 43.2698 15.0045 42.4378 15.0045ZM47.8952 15.0045L46.3592 15.0045C46.1672 15.0045 46.1032 14.8925 46.1672 14.6685L48.6952 5.05248C48.7699 4.82848 48.9299 4.71648 49.1752 4.71648L51.3032 4.71648C51.5699 4.71648 51.7299 4.82848 51.7832 5.05248L54.3112 14.6685C54.3752 14.8925 54.3112 15.0045 54.1192 15.0045L52.5832 15.0045C52.4659 15.0045 52.3859 14.9831 52.3432 14.9405C52.3005 14.8871 52.2685 14.7965 52.2472 14.6685L51.7992 12.9085L48.6792 12.9085L48.2312 14.6685C48.2099 14.7965 48.1725 14.8872 48.1192 14.9405C48.0765 14.9832 48.0019 15.0045 47.8952 15.0045ZM50.2152 6.65248L49.0632 11.2765L51.4312 11.2765L50.2792 6.65248L50.2152 6.65248ZM57.9375 13.3085L59.7295 13.3085C60.0815 13.3085 60.3321 13.2391 60.4815 13.1005C60.6415 12.9511 60.7215 12.7111 60.7215 12.3805L60.7215 11.4525C60.7215 11.1218 60.6415 10.8871 60.4815 10.7485C60.3215 10.6098 60.0601 10.5405 59.6975 10.5405L57.9375 10.5405C57.8201 10.5405 57.7615 10.5991 57.7615 10.7165L57.7615 13.1325C57.7615 13.2498 57.8201 13.3085 57.9375 13.3085ZM57.9375 8.89248L59.5695 8.89248C59.9108 8.89248 60.1615 8.82314 60.3215 8.68448C60.4815 8.53514 60.5615 8.29514 60.5615 7.96448L60.5615 7.34048C60.5615 7.00981 60.4815 6.77514 60.3215 6.63648C60.1721 6.48714 59.9268 6.41248 59.5855 6.41248L57.9375 6.41248C57.8201 6.41248 57.7615 6.47114 57.7615 6.58848L57.7615 8.71648C57.7615 8.83381 57.8201 8.89248 57.9375 8.89248ZM55.7295 14.6685L55.7295 5.05248C55.7295 4.82848 55.8415 4.71648 56.0655 4.71648L59.9055 4.71648C60.7481 4.71648 61.3988 4.94047 61.8575 5.38847C62.3161 5.83647 62.5455 6.47647 62.5455 7.30847L62.5455 7.96447C62.5455 8.87114 62.1241 9.45781 61.2815 9.72447C61.7081 9.78847 62.0495 9.96447 62.3055 10.2525C62.5615 10.5298 62.6895 10.9298 62.6895 11.4525L62.6895 12.4125C62.6895 13.2445 62.4601 13.8845 62.0015 14.3325C61.5428 14.7805 60.8975 15.0045 60.0655 15.0045L56.0655 15.0045C55.8415 15.0045 55.7295 14.8925 55.7295 14.6685ZM69.8161 15.0045L68.4561 15.0045C68.2321 15.0045 68.1201 14.8925 68.1201 14.6685L68.1201 5.05247C68.1201 4.82847 68.2321 4.71647 68.4561 4.71647L73.5601 4.71647C73.7734 4.71647 73.8801 4.82847 73.8801 5.05247L73.8801 6.14047C73.8801 6.36447 73.7734 6.47647 73.5601 6.47647L70.3441 6.47647C70.2161 6.47647 70.1521 6.53514 70.1521 6.65247L70.1521 9.13247C70.1521 9.26047 70.2161 9.32447 70.3441 9.32447L73.0801 9.32447C73.3041 9.32447 73.4161 9.43647 73.4161 9.66047L73.4161 10.7325C73.4161 10.9671 73.3041 11.0845 73.0801 11.0845L70.3441 11.0845C70.2161 11.0845 70.1521 11.1431 70.1521 11.2605L70.1521 14.6685C70.1521 14.8925 70.0401 15.0045 69.8161 15.0045ZM78.1232 13.2445L79.2592 13.2445C79.6005 13.2445 79.8405 13.1751 79.9792 13.0365C80.1285 12.8871 80.2032 12.6418 80.2032 12.3005L80.2032 7.42046C80.2032 7.07913 80.1286 6.83913 79.9792 6.70046C79.8406 6.55113 79.6006 6.47646 79.2592 6.47646L78.1232 6.47646C77.7819 6.47646 77.5419 6.55113 77.4032 6.70046C77.2646 6.83913 77.1952 7.07913 77.1952 7.42046L77.1952 12.3005C77.1952 12.6418 77.2645 12.8871 77.4032 13.0365C77.5419 13.1751 77.7819 13.2445 78.1232 13.2445ZM79.5952 15.0045L77.8032 15.0045C76.9605 15.0045 76.3099 14.7805 75.8512 14.3325C75.3925 13.8845 75.1632 13.2391 75.1632 12.3965L75.1632 7.32447C75.1632 6.4818 75.3926 5.83647 75.8512 5.38847C76.3099 4.94047 76.9606 4.71647 77.8032 4.71646L79.5952 4.71646C80.4379 4.71646 81.0886 4.94046 81.5472 5.38846C82.0059 5.83646 82.2352 6.48179 82.2352 7.32446L82.2352 12.3965C82.2352 13.2391 82.0059 13.8845 81.5472 14.3325C81.0885 14.7805 80.4379 15.0045 79.5952 15.0045ZM85.8473 15.0045L84.4873 15.0045C84.2633 15.0045 84.1513 14.8925 84.1513 14.6685L84.1513 5.05246C84.1513 4.82846 84.2633 4.71646 84.4873 4.71646L88.2953 4.71646C89.1273 4.71646 89.778 4.94579 90.2473 5.40446C90.7167 5.86312 90.9513 6.50846 90.9513 7.34046L90.9513 8.58846C90.9513 9.79379 90.4767 10.5938 89.5273 10.9885L89.5273 11.0525L91.2393 14.6205C91.3353 14.8765 91.2447 15.0045 90.9673 15.0045L89.6713 15.0045C89.4793 15.0045 89.3407 14.9831 89.2553 14.9405C89.17 14.8978 89.1007 14.8071 89.0473 14.6685L87.4473 11.2125L86.3753 11.2125C86.2473 11.2125 86.1833 11.2711 86.1833 11.3885L86.1833 14.6685C86.1833 14.8925 86.0713 15.0045 85.8473 15.0045ZM86.3593 9.58046L87.9273 9.58046C88.2687 9.58046 88.5193 9.51112 88.6793 9.37246C88.8393 9.22312 88.9193 8.98846 88.9193 8.66846L88.9193 7.42046C88.9193 7.08979 88.8393 6.84979 88.6793 6.70046C88.5193 6.55112 88.2687 6.47646 87.9273 6.47646L86.3593 6.47646C86.242 6.47646 86.1833 6.53513 86.1833 6.65246L86.1833 9.40446C86.1833 9.52179 86.242 9.58046 86.3593 9.58046ZM97.0773 15.0045L95.3813 15.0045C94.5387 15.0045 93.888 14.7805 93.4293 14.3325C92.9707 13.8845 92.7413 13.2391 92.7413 12.3965L92.7413 7.32445C92.7413 6.48179 92.9707 5.83645 93.4293 5.38845C93.888 4.94045 94.5387 4.71645 95.3813 4.71645L97.0773 4.71645C97.9093 4.71645 98.5547 4.94578 99.0133 5.40445C99.472 5.85245 99.7013 6.49245 99.7013 7.32445L99.7013 7.80445C99.7013 8.03912 99.5893 8.15645 99.3653 8.15645L98.0053 8.15645C97.7813 8.15645 97.6693 8.03912 97.6693 7.80445L97.6693 7.42045C97.6693 7.07912 97.6 6.83912 97.4613 6.70045C97.3227 6.55112 97.0827 6.47645 96.7413 6.47645L95.7013 6.47645C95.3707 6.47645 95.1307 6.55112 94.9813 6.70045C94.8427 6.83912 94.7733 7.07912 94.7733 7.42045L94.7733 12.3005C94.7733 12.6418 94.8427 12.8871 94.9813 13.0365C95.1307 13.1751 95.3707 13.2445 95.7013 13.2445L96.7413 13.2445C97.0827 13.2445 97.3227 13.1751 97.4613 13.0365C97.6 12.8871 97.6693 12.6418 97.6693 12.3005L97.6693 11.2925C97.6693 11.1751 97.6107 11.1165 97.4933 11.1165L96.5333 11.1165C96.3093 11.1165 96.1973 11.0045 96.1973 10.7805L96.1973 9.69245C96.1973 9.46845 96.3093 9.35645 96.5333 9.35645L99.3333 9.35645C99.5787 9.35645 99.7013 9.47912 99.7013 9.72445L99.7013 12.3965C99.7013 13.2285 99.472 13.8738 99.0133 14.3325C98.5547 14.7805 97.9093 15.0045 97.0773 15.0045ZM107.188 15.0044L101.956 15.0044C101.732 15.0044 101.62 14.8924 101.62 14.6684L101.62 5.05245C101.62 4.82845 101.732 4.71645 101.956 4.71645L107.188 4.71645C107.401 4.71645 107.508 4.82845 107.508 5.05245L107.508 6.14045C107.508 6.36445 107.401 6.47645 107.188 6.47645L103.844 6.47645C103.716 6.47645 103.652 6.53511 103.652 6.65245L103.652 8.73245C103.652 8.84978 103.716 8.90845 103.844 8.90845L106.58 8.90845C106.804 8.90845 106.916 9.02045 106.916 9.24445L106.916 10.3324C106.916 10.5564 106.804 10.6684 106.58 10.6684L103.844 10.6684C103.716 10.6684 103.652 10.7271 103.652 10.8444L103.652 13.0684C103.652 13.1858 103.716 13.2444 103.844 13.2444L107.188 13.2444C107.401 13.2444 107.508 13.3564 107.508 13.5804L107.508 14.6684C107.508 14.8924 107.401 15.0044 107.188 15.0044Z" fill="url(#paint0_linear_9_4540)"/>
<defs>
<linearGradient id="paint0_linear_9_4540" x1="20.002" y1="10.5045" x2="68.5" y2="10.0001" gradientUnits="userSpaceOnUse">
<stop stop-color="#2B7FFF"/>
<stop offset="0.896015" stop-color="#2B7FFF"/>
<stop offset="1" stop-color="white"/>
</linearGradient>
</defs>
</svg>
